<svg width="20" height="20" viewBox="0 0 20 20" fill="none" xmlns="http://www.w3.org/2000/svg">
<path d="M14.5977 10.4629C14.5898 9.13086 15.1934 8.12695 16.4121 7.38672C15.7305 6.41016 14.6992 5.87305 13.3398 5.76953C12.0527 5.66797 10.6445 6.51953 10.1289 6.51953C9.58398 6.51953 8.33789 5.80469 7.35742 5.80469C5.33398 5.83594 3.18359 7.41797 3.18359 10.6367C3.18359 11.5879 3.35742 12.5703 3.70508 13.582C4.16992 14.9141 5.8457 18.1777 7.59375 18.125C8.50781 18.1035 9.1543 17.4766 10.3437 17.4766C11.498 17.4766 12.0957 18.125 13.1152 18.125C14.8789 18.0996 16.3945 15.1328 16.8359 13.7969C14.4707 12.6816 14.5977 10.5312 14.5977 10.4629ZM12.5449 4.50586C13.5352 3.33008 13.4453 2.25977 13.416 1.875C12.541 1.92578 11.5293 2.4707 10.9531 3.14062C10.3184 3.85938 9.94531 4.74805 10.0254 5.75C10.9707 5.82227 11.834 5.33594 12.5449 4.50586Z" fill="#AAB3BE"/>
</svg>
