<svg width="20" height="20" viewBox="0 0 20 20" fill="none" xmlns="http://www.w3.org/2000/svg">
<g clip-path="url(#clip0)">
<path d="M14.9699 12.1681V7.77062H15.9855V11.2731H17.7693V12.165H14.9699V12.1681ZM6.81555 9.42688L9.2993 7.51625C9.53367 7.705 9.76492 7.89687 9.9993 8.08937L7.64242 9.87313L8.15367 10.3194L10.5074 8.47062L11.2105 9.04688C10.4293 9.66563 9.6418 10.2806 8.85367 10.8925L9.3618 11.3387L11.7218 9.42813L11.7187 7.77125H12.7374V11.2738H14.5862V12.1656H11.7837V10.5119C10.9537 11.1469 10.1268 11.7844 9.29992 12.4194L6.81617 10.5119C6.69555 11.1175 6.27242 11.645 5.72242 11.9212C5.48492 12.045 5.2243 12.1231 4.96055 12.1525C4.80742 12.1719 4.6543 12.1656 4.5018 12.1656H2.9293V7.77125H4.74242C5.2143 7.7775 5.67367 7.94062 6.0443 8.23687C6.42208 8.54133 6.69238 8.95882 6.81555 9.42813V9.42688ZM3.88617 8.66187V11.3375H4.68055C4.84729 11.3314 5.01073 11.2892 5.15963 11.2139C5.30852 11.1386 5.43933 11.0319 5.54305 10.9012C5.71802 10.6815 5.82559 10.4157 5.85276 10.1361C5.87994 9.85649 5.82555 9.57499 5.69617 9.32562C5.61381 9.16743 5.49861 9.02866 5.35827 8.91861C5.21792 8.80856 5.05569 8.72976 4.88242 8.6875C4.74242 8.655 4.5993 8.66125 4.4593 8.66125L3.88617 8.66187ZM9.8493 0H10.1293C11.7018 0.019375 13.2443 0.413125 14.6343 1.1425C15.9905 1.85706 17.1661 2.87127 18.0718 4.10812C19.2956 5.77533 19.9692 7.78265 19.9987 9.85063V10.15C19.9667 12.6402 19.0053 15.0285 17.303 16.8463C16.3843 17.8259 15.2774 18.6102 14.0485 19.1522C12.8197 19.6942 11.4941 19.9827 10.1512 20.0006H9.84867C8.66676 19.9837 7.49728 19.7566 6.39492 19.33C5.00605 18.788 3.75479 17.9445 2.73138 16.8603C1.70797 15.7762 0.93793 14.4784 0.476797 13.0606C0.174827 12.1195 0.0135029 11.1389 -0.00195312 10.1506V9.85125C0.0305469 7.95375 0.606797 6.10125 1.65805 4.5225C2.63889 3.0392 3.99275 1.8401 5.58367 1.04562C6.90852 0.381196 8.36611 0.0240075 9.84805 0.000625L9.8493 0ZM9.72242 1.02562C7.76787 1.08114 5.88553 1.7765 4.3643 3.005C3.11869 4.00625 2.16341 5.32232 1.59742 6.81687C0.774467 9.00755 0.831584 11.4318 1.7568 13.5812C2.39679 15.0506 3.41706 16.3226 4.71242 17.2663C5.88864 18.1253 7.25797 18.682 8.69992 18.8875C9.9143 19.0631 11.1643 18.9919 12.3493 18.6725C13.9694 18.2343 15.4341 17.3504 16.577 16.1213C17.7198 14.8921 18.495 13.3671 18.8143 11.7194C19.0643 10.4275 19.03 9.09665 18.7137 7.81938C18.3462 6.34576 17.6108 4.98949 16.5763 3.87758C15.5418 2.76567 14.242 1.93449 12.7987 1.46187C11.8064 1.13865 10.7654 0.991016 9.72242 1.02562Z" fill="#AAB3BE"/>
</g>
<defs>
<clipPath id="clip0">
<rect width="20" height="20" fill="white"/>
</clipPath>
</defs>
</svg>
