<svg width="15" height="15" viewBox="0 0 15 15" fill="none" xmlns="http://www.w3.org/2000/svg">
<g clip-path="url(#clip0)">
<path d="M2.295 3.83855C2.295 3.83855 1.13766 4.94434 1.07438 6.11387V6.33137C1.12547 7.27637 1.83844 7.83277 1.83844 7.83277C2.98125 8.95074 5.74969 10.357 6.39891 10.6748C6.39891 10.6748 6.43781 10.6945 6.46219 10.6701L6.47438 10.6457V10.619C4.69969 6.75184 2.29453 3.83902 2.29453 3.83902L2.295 3.83855ZM6.03047 11.6264C6.01828 11.5753 5.96953 11.5753 5.96953 11.5753L1.3575 11.7389C1.85578 12.6323 2.70047 13.3186 3.58172 13.1132C4.18219 12.9571 5.55703 12 6.00609 11.6751C6.045 11.6432 6.03047 11.6189 6.03047 11.6189V11.6264ZM6.08156 11.1379C4.05516 9.76824 0.131719 7.67621 0.131719 7.67621C0.0479333 7.93836 0.0035429 8.21149 0 8.48668L0 8.53074C0 9.19965 0.248906 9.6684 0.248906 9.6684C0.749531 10.7254 1.71141 11.0456 1.71141 11.0456C2.15109 11.2312 2.58797 11.2382 2.58797 11.2382C2.66344 11.2504 5.33719 11.2382 6.04969 11.2382C6.08156 11.2382 6.10078 11.2064 6.10078 11.2064V11.1698C6.10078 11.1501 6.08109 11.1379 6.08109 11.1379H6.08156ZM5.66156 1.99496C5.21873 2.10836 4.82385 2.3606 4.53477 2.71471C4.2457 3.06882 4.07762 3.5062 4.05516 3.96277V4.21918C4.06606 4.44094 4.09968 4.661 4.15547 4.8759C4.56797 6.68762 6.57 9.65621 6.99984 10.2811C7.03172 10.3129 7.06313 10.3007 7.06313 10.3007C7.0751 10.2954 7.08509 10.2864 7.09165 10.275C7.09822 10.2637 7.10103 10.2505 7.09969 10.2375C7.76391 3.61402 6.40641 1.85105 6.40641 1.85105C6.20625 1.86324 5.66156 1.99496 5.66156 1.99496ZM10.8497 3.4134C10.8497 3.4134 10.5445 2.28793 9.32625 1.98746C9.32625 1.98746 8.97 1.89934 8.59359 1.85059C8.59359 1.85059 7.23141 3.60605 7.89281 10.244C7.90031 10.2881 7.93172 10.2928 7.93172 10.2928C7.97578 10.3125 7.99266 10.2759 7.99266 10.2759C8.44453 9.63137 10.4316 6.67496 10.837 4.87543C10.837 4.87543 11.0616 3.99887 10.8492 3.41293L10.8497 3.4134ZM9.02578 11.5823C9.02578 11.5823 8.98172 11.5823 8.96953 11.6118C8.96953 11.6118 8.96203 11.6559 8.98641 11.6751C9.42328 11.9948 10.7686 12.9253 11.4131 13.1132C11.4131 13.1132 11.5134 13.1451 11.6817 13.1498H11.767C12.1992 13.1376 12.9558 12.9201 13.642 11.7389L9.01781 11.5828L9.02578 11.5823ZM13.9186 6.32621C14.0067 5.03715 12.705 3.84324 12.705 3.83855C12.705 3.83855 10.3003 6.75137 8.53734 10.589C8.53734 10.589 8.51766 10.6378 8.54953 10.6696L8.57391 10.6743H8.61281C9.27422 10.3448 12.0234 8.94324 13.1611 7.83746C13.1611 7.83746 13.8811 7.25621 13.9181 6.32621H13.9186ZM14.8683 7.66402C14.8683 7.66402 10.9448 9.76871 8.91844 11.1309C8.91844 11.1309 8.88656 11.1576 8.89875 11.2017C8.89875 11.2017 8.91844 11.2382 8.94281 11.2382C9.66797 11.2382 12.4195 11.2382 12.488 11.2261C12.488 11.2261 12.8442 11.2139 13.2816 11.0456C13.2816 11.0456 14.2556 10.7329 14.7633 9.6248C14.7633 9.6248 15.2198 8.71918 14.8683 7.66449V7.66402Z" fill="#AAB3BE"/>
</g>
<defs>
<clipPath id="clip0">
<rect width="15" height="15" fill="white"/>
</clipPath>
</defs>
</svg>
