<svg width="19" height="19" viewBox="0 0 19 19" fill="none" xmlns="http://www.w3.org/2000/svg">
<path d="M16.3281 13.6562C16.5642 13.656 16.7906 13.5621 16.9576 13.3951C17.1246 13.2281 17.2185 13.0017 17.2188 12.7656V3.85938C17.2185 3.62325 17.1246 3.39688 16.9576 3.22991C16.7906 3.06295 16.5642 2.96902 16.3281 2.96875H2.67188C2.43575 2.96902 2.20938 3.06295 2.04241 3.22991C1.87545 3.39688 1.78152 3.62325 1.78125 3.85938V12.7656C1.78152 13.0017 1.87545 13.2281 2.04241 13.3951C2.20938 13.5621 2.43575 13.656 2.67188 13.6562H16.3281ZM2.96875 4.15625H16.0312V12.4688H2.96875V4.15625Z" fill="#AAB3BE"/>
<path d="M0.59375 14.8438H18.4062V16.0312H0.59375V14.8438Z" fill="#AAB3BE"/>
</svg>
