<svg width="32" height="11" viewBox="0 0 32 11" fill="none" xmlns="http://www.w3.org/2000/svg">
<path d="M27.005 4.562C26.8563 4.56074 26.709 4.59013 26.5722 4.64834C26.4354 4.70655 26.312 4.79233 26.2098 4.90033C26.1076 5.00833 26.0288 5.13624 25.9783 5.27606C25.9277 5.41588 25.9065 5.56462 25.916 5.713C25.9107 5.86188 25.9352 6.01033 25.9881 6.14958C26.041 6.28884 26.1213 6.41609 26.2242 6.52383C26.3271 6.63157 26.4505 6.71761 26.5872 6.7769C26.7239 6.83618 26.871 6.86749 27.02 6.869C27.169 6.86972 27.3165 6.83979 27.4534 6.78107C27.5903 6.72236 27.7136 6.6361 27.8157 6.52768C27.9179 6.41926 27.9966 6.29098 28.0471 6.15083C28.0975 6.01068 28.1186 5.86165 28.109 5.713C28.1138 5.5645 28.0889 5.41653 28.0357 5.2778C27.9825 5.13906 27.9021 5.01236 27.7993 4.90513C27.6964 4.7979 27.5732 4.71231 27.4368 4.65338C27.3004 4.59446 27.1536 4.56339 27.005 4.562ZM18.323 4.562C18.1746 4.56082 18.0276 4.59032 17.8911 4.64865C17.7547 4.70697 17.6318 4.79286 17.5301 4.90094C17.4284 5.00901 17.3501 5.13693 17.3002 5.27667C17.2503 5.41641 17.2298 5.56496 17.24 5.713C17.2342 5.86198 17.2585 6.01061 17.3112 6.15005C17.364 6.28949 17.4443 6.4169 17.5473 6.52473C17.6502 6.63255 17.7738 6.71859 17.9107 6.77773C18.0476 6.83687 18.1949 6.86791 18.344 6.869C18.4927 6.86978 18.64 6.83984 18.7766 6.78106C18.9132 6.72228 19.0362 6.63592 19.1378 6.5274C19.2395 6.41887 19.3177 6.29052 19.3674 6.15038C19.4172 6.01025 19.4375 5.86134 19.427 5.713C19.4322 5.56439 19.4076 5.41625 19.3545 5.27733C19.3015 5.13841 19.2211 5.01154 19.1182 4.90423C19.0153 4.79691 18.8919 4.71134 18.7553 4.65255C18.6187 4.59377 18.4717 4.56298 18.323 4.562ZM8.979 4.489C8.81182 4.48386 8.64581 4.51843 8.49457 4.58988C8.34334 4.66132 8.2112 4.7676 8.109 4.9C7.906 5.18312 7.82364 5.53522 7.88 5.879L9.849 5.066C9.77696 4.89473 9.65598 4.74853 9.50122 4.64571C9.34646 4.54289 9.1648 4.48803 8.979 4.488V4.489ZM0 0V10.667H32V0H0ZM6.677 7.771H2.969V2.438H4.115V6.735H6.678L6.677 7.771ZM9.099 6.942C9.531 6.947 9.953 6.796 10.276 6.504L10.99 7.051C10.4819 7.55529 9.79485 7.83788 9.079 7.837C8.78907 7.86535 8.49641 7.83384 8.21917 7.74443C7.94192 7.65502 7.68599 7.50961 7.46726 7.31722C7.24852 7.12483 7.07163 6.88955 6.94756 6.62598C6.82349 6.36242 6.75489 6.07617 6.746 5.785C6.73767 5.49319 6.78945 5.20279 6.8981 4.93184C7.00676 4.66088 7.16998 4.41517 7.37762 4.20997C7.58526 4.00477 7.83288 3.84447 8.1051 3.73902C8.37732 3.63357 8.66831 3.58523 8.96 3.597C9.26243 3.58249 9.56435 3.63472 9.84432 3.74999C10.1243 3.86527 10.3755 4.04075 10.58 4.264C10.851 4.592 11.023 4.988 11.075 5.41L8.19 6.613C8.435 6.837 8.763 6.957 9.101 6.941L9.099 6.942ZM15.609 7.771H14.479V5.432C14.4745 5.31264 14.4463 5.19535 14.3961 5.08699C14.3458 4.97863 14.2745 4.88136 14.1863 4.80085C14.098 4.72034 13.9946 4.6582 13.8821 4.61805C13.7696 4.5779 13.6503 4.56055 13.531 4.567C13.4124 4.55982 13.2935 4.57678 13.1816 4.61685C13.0697 4.65692 12.9671 4.71927 12.88 4.80012C12.7928 4.88098 12.723 4.97866 12.6747 5.08727C12.6264 5.19588 12.6007 5.31315 12.599 5.432V7.771H11.474V3.662H12.604V4.251C12.7624 4.04827 12.9646 3.88397 13.1954 3.77038C13.4262 3.65678 13.6797 3.59683 13.937 3.595C14.156 3.5828 14.3751 3.61632 14.5804 3.69343C14.7857 3.77054 14.9727 3.88954 15.1295 4.04286C15.2863 4.19618 15.4095 4.38047 15.4912 4.58399C15.5729 4.78751 15.6113 5.00582 15.604 5.225L15.609 7.771ZM18.255 7.838C16.385 7.76 15.521 5.479 16.875 4.182C18.224 2.89 20.469 3.843 20.469 5.713C20.468 5.99934 20.4094 6.28256 20.2966 6.54577C20.1839 6.80898 20.0193 7.04681 19.8127 7.24509C19.6061 7.44338 19.3618 7.59805 19.0941 7.69991C18.8265 7.80178 18.5411 7.84874 18.255 7.838ZM21.984 7.765L20.296 3.661H21.582L22.603 6.463L23.624 3.661H24.91L23.217 7.765H21.984ZM26.932 7.838C25.067 7.76 24.203 5.479 25.552 4.182C26.906 2.89 29.146 3.843 29.146 5.713C29.1454 5.99946 29.0871 6.28287 28.9745 6.54628C28.8619 6.80968 28.6973 7.04768 28.4906 7.24605C28.284 7.44441 28.0394 7.59907 27.7716 7.70078C27.5038 7.80249 27.2182 7.84916 26.932 7.838ZM29.599 7.281H29.411V7.771H29.302V7.281H29.12V7.177H29.599V7.281ZM30.323 7.771H30.214V7.349L30.032 7.635H30.016L29.834 7.349V7.771H29.725V7.177H29.845L30.022 7.458L30.199 7.177H30.319L30.323 7.771Z" fill="#AAB3BE"/>
</svg>
