<svg width="20" height="20" viewBox="0 0 73 72" fill="none" xmlns="http://www.w3.org/2000/svg">
<path d="M0.0027991 43.9092V60.655C0.0027991 60.655 -0.426431 69.4037 9.34564 70.4671V65.6036C9.34564 65.6036 4.81014 64.8521 4.81014 60.6125V43.9092" fill="#AAB3BE"/>
<path d="M15.2827 63.8165C19.2172 63.8165 21.8355 61.5053 21.8355 57.9746V50.7432H17.2428V57.7761C17.2428 59.0948 16.4988 59.903 15.2827 59.903C14.0522 59.903 13.2939 59.1232 13.2939 57.7761V50.7432H8.70117V57.9605C8.71548 61.5053 11.3481 63.8165 15.2827 63.8165Z" fill="#AAB3BE"/>
<path d="M32.1814 60.655V43.9092H32.0669H27.0736H22.8528V48.5884H27.3597V60.6125C27.3597 64.8379 22.8242 65.6036 22.8242 65.6036V70.4671C32.6106 69.3895 32.1814 60.655 32.1814 60.655Z" fill="#AAB3BE"/>
<path d="M45.7876 50.6587V51.6797C44.6859 50.7864 43.2838 50.2617 41.7243 50.2617C37.6466 50.2617 34.7422 53.1685 34.7422 57.2663C34.7422 61.3642 37.6466 64.3135 41.7243 64.3135C43.2695 64.3135 44.6573 63.803 45.7447 62.9381L45.7161 63.8739H49.6793V50.6587H45.7876ZM42.3252 60.2724C40.6083 60.2724 39.3492 58.982 39.3492 57.2663C39.3492 55.5506 40.6083 54.2603 42.3252 54.2603C44.0421 54.2603 45.3012 55.5506 45.3012 57.2663C45.3012 58.9962 44.0421 60.2724 42.3252 60.2724ZM68.2505 50.2759C66.5908 50.2759 65.1171 51.0274 64.1585 52.2185C63.3287 50.999 61.9552 50.2759 60.3384 50.2759C58.8075 50.2759 57.4054 50.9707 56.4468 52.0909L56.4038 50.6729H52.5551V63.8739H57.1478V56.6424C57.1478 54.9976 57.8346 54.1185 59.0793 54.1185C60.038 54.1185 60.553 54.8275 60.553 56.1603V63.8739H65.017V56.6424C65.017 54.9834 65.6608 54.1185 66.9199 54.1185C67.8928 54.1185 68.4079 54.7849 68.4079 56.1603V63.8739H73.0006V55.5932C73.0006 52.4879 71.0977 50.2759 68.2505 50.2759Z" fill="#AAB3BE"/>
<path d="M53.6562 66.7668C54.0855 66.7668 54.4861 66.7668 54.901 66.7668C55.273 66.7668 55.6593 66.7526 56.017 66.8235C56.5464 66.9086 56.9184 67.2205 57.0471 67.7452C57.1759 68.284 56.9899 68.7235 56.575 69.078L56.5607 69.0922C56.7324 69.2765 56.9184 69.4325 57.0471 69.631C57.505 70.4392 57.0471 71.4176 56.1028 71.6445C55.9741 71.6728 55.831 71.687 55.6879 71.687C55.0441 71.687 54.4145 71.687 53.7707 71.687C53.7421 71.687 53.6992 71.687 53.6562 71.687C53.6562 70.0564 53.6562 68.4258 53.6562 66.7668ZM54.4575 70.9213C54.8152 70.9213 55.1728 70.9213 55.5162 70.9213C55.645 70.9213 55.7595 70.9072 55.8882 70.8788C56.203 70.7937 56.4033 70.5101 56.389 70.1698C56.3747 69.8579 56.1458 69.5743 55.831 69.5459C55.3875 69.5176 54.9296 69.5318 54.4718 69.5318C54.4575 69.9997 54.4575 70.4534 54.4575 70.9213ZM54.4575 68.7944C54.8724 68.7944 55.2587 68.8086 55.645 68.7944C56.017 68.7803 56.2745 68.4967 56.2602 68.1422C56.2459 67.8019 55.9884 67.5325 55.6164 67.5325C55.2587 67.5183 54.8867 67.5325 54.529 67.5325C54.5004 67.5325 54.4718 67.5466 54.4575 67.5466C54.4575 67.9578 54.4575 68.3691 54.4575 68.7944Z" fill="#AAB3BE"/>
<path d="M72.7987 71.6868C72.4983 71.6868 72.2407 71.6868 71.9689 71.6868C71.9117 71.6868 71.8401 71.6301 71.8115 71.5734C71.4967 71.0488 71.182 70.5241 70.8815 69.9995C70.8243 69.9002 70.7671 69.8719 70.6526 69.8719C70.3951 69.8861 70.1375 69.8719 69.8657 69.8719C69.8657 70.4816 69.8657 71.0771 69.8657 71.6868C69.5938 71.6868 69.3363 71.6868 69.0645 71.6868C69.0645 70.0562 69.0645 68.4256 69.0645 66.7808C69.0788 66.7666 69.0931 66.7666 69.0931 66.7666C69.8227 66.7808 70.5524 66.7524 71.2821 66.795C71.9546 66.8375 72.5126 67.3905 72.627 68.0144C72.7558 68.7375 72.441 69.3756 71.7972 69.6875C71.7543 69.7159 71.7114 69.7301 71.6541 69.7584C72.0261 70.3965 72.3981 71.0346 72.7987 71.6868ZM69.8657 69.092C70.2949 69.092 70.6955 69.1062 71.1104 69.092C71.4967 69.0637 71.7829 68.7659 71.8115 68.383C71.8401 68.0002 71.6255 67.6457 71.2392 67.5748C70.7957 67.5039 70.3378 67.5181 69.8657 67.4897C69.8657 68.0711 69.8657 68.5816 69.8657 69.092Z" fill="#AAB3BE"/>
<path d="M41.3368 68.5101C41.065 68.5101 40.8074 68.5101 40.5213 68.5101C40.507 68.4959 40.4927 68.4676 40.4927 68.4392C40.1636 67.7161 39.5197 67.3758 38.6899 67.475C37.9745 67.5601 37.3879 68.1273 37.2735 68.8646C37.159 69.6019 37.3307 70.24 37.9745 70.6937C38.7042 71.2184 40.0491 71.1191 40.4927 69.9848C40.5356 69.8855 40.5785 69.8571 40.6787 69.8571C40.9076 69.8571 41.1222 69.8571 41.3654 69.8571C41.2939 70.24 41.1365 70.5661 40.9076 70.8639C40.2781 71.6437 39.2479 71.9557 38.2178 71.6721C37.2735 71.4169 36.5724 70.5803 36.4579 69.6161C36.3578 68.7086 36.5867 67.9004 37.2878 67.2907C38.5182 66.1989 40.8504 66.5534 41.3368 68.5101Z" fill="#AAB3BE"/>
<path d="M62.4835 67.5323C62.4835 67.9718 62.4835 68.383 62.4835 68.8084C63.0987 68.8084 63.714 68.8084 64.3435 68.8084C64.3435 69.0637 64.3435 69.2905 64.3435 69.5458C63.7283 69.5458 63.113 69.5458 62.4835 69.5458C62.4835 70.0137 62.4835 70.4532 62.4835 70.9212C63.1846 70.9212 63.9 70.9212 64.6153 70.9212C64.6153 71.1764 64.6153 71.4174 64.6153 71.6727C63.6281 71.6727 62.6552 71.6727 61.668 71.6727C61.668 70.042 61.668 68.4114 61.668 66.7666C62.6266 66.7666 63.5709 66.7666 64.5295 66.7666C64.5295 67.0077 64.5295 67.2629 64.5295 67.5181C63.857 67.5323 63.1846 67.5323 62.4835 67.5323Z" fill="#AAB3BE"/>
<path d="M44.7852 66.7661C45.0713 66.7661 45.3145 66.7661 45.5721 66.7661C45.6293 66.7661 45.7008 66.8228 45.7295 66.8795C46.1158 67.5176 46.5021 68.1556 46.8884 68.7937C46.917 68.8504 46.9456 68.893 47.0028 68.9639C47.2747 68.5101 47.5322 68.0847 47.7897 67.6594C47.9471 67.39 48.1045 67.1206 48.2762 66.8653C48.3048 66.8228 48.362 66.7661 48.405 66.7661C48.6625 66.7519 48.92 66.7661 49.1919 66.7661C49.149 66.837 49.1347 66.8795 49.106 66.922C48.5624 67.8012 48.033 68.6945 47.5036 69.5736C47.4464 69.6587 47.4177 69.7721 47.4177 69.8855C47.4034 70.4811 47.4177 71.0766 47.4177 71.6721C47.1316 71.6721 46.8598 71.6721 46.5736 71.6721C46.5736 71.5871 46.5736 71.5162 46.5736 71.4453C46.5736 70.9348 46.5736 70.4102 46.5736 69.8997C46.5736 69.7863 46.5307 69.6728 46.4878 69.5736C45.9584 68.6945 45.429 67.8153 44.8996 66.9362C44.8567 66.8795 44.8281 66.837 44.7852 66.7661Z" fill="#AAB3BE"/>
<path d="M21.6093 0V22.8571C21.6093 22.8571 21.0227 34.7962 34.3716 36.2566V29.2237C34.3716 29.2237 28.5628 28.5856 28.5628 22.8146V0" fill="#AAB3BE"/>
<path d="M51.2135 22.8571V0H51.0704H44.26H33V7.17476H44.3459V22.8146C44.3459 28.5856 38.4369 29.2237 38.4369 29.2237V36.2566C51.8001 34.782 51.2135 22.8571 51.2135 22.8571Z" fill="#AAB3BE"/>
<path d="M36.1881 20.8012C38.277 20.8012 39.9796 19.1139 39.9796 17.0437C39.9796 14.9735 38.277 13.2861 36.1881 13.2861C34.0992 13.2861 32.3966 14.9735 32.3966 17.0437C32.3823 19.1139 34.0849 20.8012 36.1881 20.8012Z" fill="#AAB3BE"/>
</svg>
