<svg width="21" height="21" viewBox="0 0 21 21" fill="none" xmlns="http://www.w3.org/2000/svg">
<path d="M15.5859 0.65625H5.41406C5.06609 0.656641 4.73247 0.795047 4.48642 1.0411C4.24036 1.28716 4.10195 1.62077 4.10156 1.96875V19.0312C4.10195 19.3792 4.24036 19.7128 4.48642 19.9589C4.73247 20.205 5.06609 20.3434 5.41406 20.3438H15.5859C15.9339 20.3434 16.2675 20.205 16.5136 19.9589C16.7596 19.7128 16.898 19.3792 16.8984 19.0312V1.96875C16.898 1.62077 16.7596 1.28716 16.5136 1.0411C16.2675 0.795047 15.9339 0.656641 15.5859 0.65625ZM15.5859 1.96875V3.28125H5.41406V1.96875H15.5859ZM15.5859 4.59375L15.5864 13.7812H5.41406V4.59375H15.5859ZM15.5859 19.0312H5.41406V15.0938H15.5866V19.0312H15.5859Z" fill="#AAB3BE"/>
<path d="M9.84375 16.4062H11.1562V17.7188H9.84375V16.4062Z" fill="#AAB3BE"/>
</svg>
