<svg width="17" height="17" viewBox="0 0 17 17" fill="none" xmlns="http://www.w3.org/2000/svg">
<path d="M12.0603 1.14628C12.5636 0.640556 13.2422 0.351226 13.9533 0.339254C14.6643 0.327282 15.3522 0.593602 15.872 1.0821C16.3918 1.5706 16.7029 2.24314 16.7398 2.958C16.7767 3.67287 16.5365 4.37425 16.0699 4.91437L15.9417 5.05334L6.46907 14.5887C6.26716 14.7917 6.02391 14.9481 5.75612 15.0473L5.59341 15.0999L1.59473 16.1978C1.51727 16.2193 1.43577 16.2214 1.35732 16.2039C1.27887 16.1865 1.20585 16.15 1.14461 16.0976C1.08336 16.0453 1.03576 15.9786 1.00593 15.9035C0.976109 15.8284 0.964967 15.7471 0.973477 15.6667L0.989255 15.5873L2.07989 11.5631C2.15484 11.2852 2.28895 11.0271 2.47237 10.8087L2.58774 10.6816L12.0603 1.14628ZM11.2123 3.40455L3.28492 11.3835C3.19435 11.4748 3.12233 11.583 3.07291 11.7021L3.03149 11.8242L2.16667 15.0106L5.33406 14.142C5.41656 14.1194 5.49579 14.086 5.56974 14.0428L5.67525 13.9713L5.77189 13.8869L13.6983 5.90602L11.2123 3.40455ZM15.2445 1.84808C14.9344 1.53569 14.5195 1.35129 14.0812 1.33109C13.6429 1.31088 13.213 1.45634 12.8758 1.73889L12.7575 1.84808L11.9094 2.70176L14.3944 5.20522L15.2445 4.35154C15.5548 4.03938 15.738 3.62171 15.7581 3.18055C15.7781 2.73938 15.6336 2.30661 15.3529 1.9672L15.2445 1.84808Z" fill="#73D3C1"/>
</svg>
