<svg width="32" height="5" viewBox="0 0 32 5" fill="none" xmlns="http://www.w3.org/2000/svg">
<path d="M26.422 0.152L26.485 3.741H26.454L25.412 0.152H23.704V4.673H24.834L24.771 0.959001H24.802L25.917 4.673H27.552V0.152H26.422ZM4.891 0.152L4.037 4.72H5.271L5.901 0.564H5.927L6.542 4.72H7.766L6.922 0.152H4.891ZM11.797 0.152L11.234 3.636H11.203L10.635 0.152H8.77L8.681 4.72H9.827L9.858 0.611H9.868L10.634 4.72H11.795L12.561 0.611H12.592L12.623 4.72H13.769L13.66 0.152H11.797ZM2.109 3.423C2.156 3.527 2.14 3.683 2.125 3.756C2.094 3.912 1.984 4.063 1.682 4.063C1.39 4.063 1.224 3.896 1.224 3.652V3.209H0V3.558C0 4.584 0.807 4.886 1.667 4.886C2.49 4.886 3.177 4.6 3.287 3.85C3.35 3.454 3.303 3.194 3.287 3.1C3.073 2.136 1.329 1.866 1.209 1.329C1.19286 1.24813 1.19286 1.16487 1.209 1.084C1.24 0.933001 1.344 0.777 1.62 0.777C1.896 0.777 2.047 0.944001 2.047 1.188V1.464H3.193V1.146C3.193 0.151 2.292 0 1.651 0C0.838 0 0.167 0.271 0.047 1.005C0.00564082 1.20856 0.0111121 1.41886 0.063 1.62C0.245 2.563 1.881 2.839 2.11 3.422L2.109 3.423ZM16.979 3.423C17.026 3.527 17.01 3.668 16.995 3.756C16.964 3.912 16.854 4.063 16.552 4.063C16.26 4.063 16.094 3.896 16.094 3.652V3.209H14.87V3.558C14.87 4.568 15.662 4.876 16.521 4.876C17.344 4.876 18.016 4.6 18.125 3.834C18.188 3.438 18.141 3.193 18.125 3.084C17.943 2.136 16.214 1.85 16.094 1.329C16.0779 1.24813 16.0779 1.16487 16.094 1.084C16.12 0.933001 16.229 0.777 16.505 0.777C16.765 0.777 16.932 0.944001 16.932 1.188V1.464H18.062V1.146C18.062 0.151 17.177 0 16.536 0C15.723 0 15.067 0.255 14.947 1.005C14.916 1.203 14.916 1.39 14.957 1.62C15.145 2.563 16.749 2.823 16.978 3.422L16.979 3.423ZM20.828 4.033C21.151 4.033 21.239 3.819 21.271 3.7C21.287 3.653 21.287 3.575 21.287 3.528V0.153H22.448V3.439C22.448 3.528 22.448 3.699 22.432 3.741C22.359 4.6 21.682 4.876 20.843 4.876C20.004 4.876 19.333 4.6 19.254 3.741C19.254 3.699 19.238 3.527 19.238 3.439V0.153H20.399V3.528C20.399 3.591 20.399 3.653 20.415 3.7C20.415 3.82 20.509 4.033 20.826 4.033H20.828ZM30.365 3.986C30.704 3.986 30.808 3.772 30.839 3.653C30.855 3.606 30.855 3.528 30.855 3.486V2.825H30.381V2.153H32.001V3.377C32.001 3.471 32.001 3.528 31.985 3.684C31.907 4.523 31.188 4.814 30.381 4.814C29.568 4.814 28.855 4.522 28.777 3.684C28.761 3.528 28.761 3.47 28.761 3.377V1.45C28.761 1.377 28.777 1.221 28.777 1.148C28.881 0.289001 29.569 0.0130005 30.381 0.0130005C31.188 0.0130005 31.891 0.289001 31.985 1.148C32.001 1.283 32.001 1.45 32.001 1.45V1.606H30.855V1.346C30.855 1.346 30.855 1.237 30.839 1.174C30.823 1.07 30.73 0.841001 30.381 0.841001C30.042 0.841001 29.954 1.055 29.923 1.174C29.907 1.237 29.907 1.315 29.907 1.393V3.487C29.907 3.544 29.907 3.607 29.923 3.654C29.923 3.774 30.043 3.987 30.366 3.987L30.365 3.986Z" fill="#AAB3BE"/>
</svg>
