<svg width="8" height="4" viewBox="0 0 8 4" fill="none" xmlns="http://www.w3.org/2000/svg">
<path d="M3.46435 3.87683L0.0856882 0.498167C0.0448278 0.45741 0.0169774 0.405446 0.00566158 0.348854C-0.0056542 0.292262 7.3269e-05 0.233585 0.0221195 0.180249C0.0441656 0.126914 0.0815393 0.0813178 0.12951 0.0492318C0.177481 0.0171457 0.233892 1.22587e-05 0.291605 0H7.0501C7.10782 1.22587e-05 7.16423 0.0171457 7.2122 0.0492318C7.26017 0.0813178 7.29754 0.126914 7.31959 0.180249C7.34164 0.233585 7.34736 0.292262 7.33605 0.348854C7.32473 0.405446 7.29688 0.45741 7.25602 0.498167L3.87677 3.87683C3.82208 3.93151 3.7479 3.96223 3.67056 3.96223C3.59322 3.96223 3.51905 3.93151 3.46435 3.87683Z" fill="#A0AEC0"/>
</svg>
   