<svg width="23" height="23" viewBox="0 0 23 23" fill="none" xmlns="http://www.w3.org/2000/svg">
<path d="M11.5 1.4375C5.94316 1.4375 1.4375 5.94316 1.4375 11.5C1.4375 17.0568 5.94316 21.5625 11.5 21.5625C17.0568 21.5625 21.5625 17.0568 21.5625 11.5C21.5625 5.94316 17.0568 1.4375 11.5 1.4375ZM11.5 19.8555C6.88652 19.8555 3.14453 16.1135 3.14453 11.5C3.14453 6.88652 6.88652 3.14453 11.5 3.14453C16.1135 3.14453 19.8555 6.88652 19.8555 11.5C19.8555 16.1135 16.1135 19.8555 11.5 19.8555Z" fill="#2D3748"/>
<path d="M10.4219 7.54688C10.4219 7.83281 10.5355 8.10704 10.7377 8.30922C10.9398 8.51141 11.2141 8.625 11.5 8.625C11.7859 8.625 12.0602 8.51141 12.2623 8.30922C12.4645 8.10704 12.5781 7.83281 12.5781 7.54688C12.5781 7.26094 12.4645 6.98671 12.2623 6.78453C12.0602 6.58234 11.7859 6.46875 11.5 6.46875C11.2141 6.46875 10.9398 6.58234 10.7377 6.78453C10.5355 6.98671 10.4219 7.26094 10.4219 7.54688ZM12.0391 10.0625H10.9609C10.8621 10.0625 10.7812 10.1434 10.7812 10.2422V16.3516C10.7812 16.4504 10.8621 16.5312 10.9609 16.5312H12.0391C12.1379 16.5312 12.2188 16.4504 12.2188 16.3516V10.2422C12.2188 10.1434 12.1379 10.0625 12.0391 10.0625Z" fill="#2D3748"/>
</svg>
