<svg width="103" height="101" viewBox="0 0 103 101" fill="none" xmlns="http://www.w3.org/2000/svg">
<path d="M0.00393884 61.7886V85.353C0.00393884 85.353 -0.600065 97.6639 13.151 99.1604V92.3165C13.151 92.3165 6.76873 91.259 6.76873 85.2931V61.7886" fill="white"/>
<path d="M21.5074 89.8009C27.0441 89.8009 30.7285 86.5486 30.7285 81.5803V71.4043H24.2657V81.3009C24.2657 83.1566 23.2188 84.2939 21.5074 84.2939C19.776 84.2939 18.7089 83.1965 18.7089 81.3009V71.4043H12.2461V81.5603C12.2662 86.5486 15.9708 89.8009 21.5074 89.8009Z" fill="white"/>
<path d="M45.2824 85.352V61.7876H45.1213H38.0948H32.1555V68.3721H38.4975V85.2921C38.4975 91.2381 32.1152 92.3156 32.1152 92.3156V99.1594C45.8864 97.643 45.2824 85.352 45.2824 85.352Z" fill="white"/>
<path d="M64.4296 71.2857V72.7223C62.8794 71.4653 60.9063 70.7271 58.7118 70.7271C52.9738 70.7271 48.8867 74.8174 48.8867 80.5838C48.8867 86.3502 52.9738 90.5004 58.7118 90.5004C60.8862 90.5004 62.8391 89.7821 64.3692 88.565L64.329 89.8819H69.9059V71.2857H64.4296ZM59.5574 84.8138C57.1414 84.8138 55.3696 82.9981 55.3696 80.5838C55.3696 78.1695 57.1414 76.3538 59.5574 76.3538C61.9734 76.3538 63.7451 78.1695 63.7451 80.5838C63.7451 83.0181 61.9734 84.8138 59.5574 84.8138ZM96.0389 70.747C93.7035 70.747 91.6297 71.8045 90.2808 73.4806C89.1131 71.7646 87.1803 70.747 84.9052 70.747C82.751 70.747 80.7779 71.7247 79.429 73.301L79.3686 71.3057H73.9527V89.8819H80.4155V79.7059C80.4155 77.3913 81.3819 76.1542 83.1335 76.1542C84.4824 76.1542 85.2072 77.1519 85.2072 79.0275V89.8819H91.4888V79.7059C91.4888 77.3714 92.3948 76.1542 94.1665 76.1542C95.5356 76.1542 96.2604 77.092 96.2604 79.0275V89.8819H102.723V78.2294C102.723 73.8597 100.045 70.747 96.0389 70.747Z" fill="white"/>
<path d="M75.5039 93.9523C76.1079 93.9523 76.6716 93.9523 77.2555 93.9523C77.779 93.9523 78.3226 93.9324 78.8259 94.0321C79.5708 94.1518 80.0943 94.5908 80.2755 95.3291C80.4567 96.0873 80.195 96.7058 79.6111 97.2046L79.591 97.2246C79.8326 97.484 80.0943 97.7035 80.2755 97.9828C80.9198 99.1201 80.2755 100.497 78.9467 100.816C78.7655 100.856 78.5642 100.876 78.3628 100.876C77.4568 100.876 76.571 100.876 75.665 100.876C75.6247 100.876 75.5643 100.876 75.5039 100.876C75.5039 98.5814 75.5039 96.2868 75.5039 93.9523ZM76.6314 99.7985C77.1347 99.7985 77.638 99.7985 78.1212 99.7985C78.3024 99.7985 78.4635 99.7786 78.6447 99.7387C79.0876 99.6189 79.3695 99.2199 79.3494 98.741C79.3292 98.3021 79.0071 97.903 78.5642 97.8631C77.94 97.8232 77.2958 97.8431 76.6515 97.8431C76.6314 98.5016 76.6314 99.1401 76.6314 99.7985ZM76.6314 96.8056C77.2152 96.8056 77.7588 96.8255 78.3024 96.8056C78.8259 96.7856 79.1883 96.3866 79.1682 95.8877C79.148 95.4089 78.7856 95.0298 78.2622 95.0298C77.7588 95.0098 77.2354 95.0298 76.732 95.0298C76.6918 95.0298 76.6515 95.0497 76.6314 95.0497C76.6314 95.6284 76.6314 96.207 76.6314 96.8056Z" fill="white"/>
<path d="M102.442 100.876C102.019 100.876 101.657 100.876 101.275 100.876C101.194 100.876 101.093 100.796 101.053 100.716C100.61 99.9779 100.167 99.2397 99.7444 98.5014C99.6639 98.3617 99.5834 98.3218 99.4223 98.3218C99.0599 98.3418 98.6975 98.3218 98.315 98.3218C98.315 99.1798 98.315 100.018 98.315 100.876C97.9324 100.876 97.57 100.876 97.1875 100.876C97.1875 98.5812 97.1875 96.2866 97.1875 93.9721C97.2076 93.9521 97.2278 93.9521 97.2278 93.9521C98.2546 93.9721 99.2814 93.9322 100.308 93.9921C101.254 94.0519 102.04 94.8301 102.201 95.708C102.382 96.7256 101.939 97.6235 101.033 98.0624C100.973 98.1024 100.912 98.1223 100.832 98.1622C101.355 99.0601 101.879 99.958 102.442 100.876ZM98.315 97.2244C98.919 97.2244 99.4827 97.2444 100.067 97.2244C100.61 97.1845 101.013 96.7655 101.053 96.2268C101.093 95.6881 100.791 95.1892 100.248 95.0895C99.6236 94.9897 98.9794 95.0097 98.315 94.9697C98.315 95.7878 98.315 96.5061 98.315 97.2244Z" fill="white"/>
<path d="M58.1684 96.4054C57.7859 96.4054 57.4235 96.4054 57.0209 96.4054C57.0007 96.3855 56.9806 96.3455 56.9806 96.3056C56.5175 95.288 55.6115 94.8092 54.4438 94.9488C53.4371 95.0686 52.6116 95.8667 52.4506 96.9042C52.2895 97.9418 52.5311 98.8397 53.4371 99.4782C54.4639 100.216 56.3565 100.077 56.9806 98.4805C57.041 98.3408 57.1014 98.3009 57.2423 98.3009C57.5645 98.3009 57.8664 98.3009 58.2087 98.3009C58.108 98.8397 57.8866 99.2986 57.5644 99.7176C56.6786 100.815 55.229 101.254 53.7794 100.855C52.4506 100.496 51.464 99.3185 51.303 97.9617C51.162 96.6847 51.4842 95.5474 52.4707 94.6895C54.2022 93.1531 57.4839 93.6519 58.1684 96.4054Z" fill="white"/>
<path d="M87.9249 95.0296C87.9249 95.6481 87.9249 96.2268 87.9249 96.8254C88.7907 96.8254 89.6564 96.8254 90.5423 96.8254C90.5423 97.1845 90.5423 97.5038 90.5423 97.8629C89.6766 97.8629 88.8108 97.8629 87.9249 97.8629C87.9249 98.5214 87.9249 99.1399 87.9249 99.7984C88.9115 99.7984 89.9181 99.7984 90.9248 99.7984C90.9248 100.158 90.9248 100.497 90.9248 100.856C89.5356 100.856 88.1665 100.856 86.7773 100.856C86.7773 98.5613 86.7773 96.2667 86.7773 93.9521C88.1263 93.9521 89.4551 93.9521 90.804 93.9521C90.804 94.2913 90.804 94.6505 90.804 95.0097C89.8577 95.0296 88.9115 95.0296 87.9249 95.0296Z" fill="white"/>
<path d="M63.0215 93.9517C63.4242 93.9517 63.7664 93.9517 64.1288 93.9517C64.2094 93.9517 64.31 94.0316 64.3503 94.1114C64.8939 95.0092 65.4375 95.9071 65.9811 96.805C66.0214 96.8848 66.0616 96.9447 66.1421 97.0444C66.5247 96.4059 66.8871 95.8074 67.2495 95.2088C67.4709 94.8297 67.6924 94.4506 67.934 94.0914C67.9743 94.0316 68.0548 93.9517 68.1152 93.9517C68.4776 93.9318 68.84 93.9517 69.2225 93.9517C69.1621 94.0515 69.142 94.1114 69.1018 94.1712C68.3367 95.4083 67.5917 96.6653 66.8468 97.9024C66.7663 98.0221 66.726 98.1818 66.726 98.3414C66.7059 99.1794 66.726 100.017 66.726 100.855C66.3233 100.855 65.9408 100.855 65.5381 100.855C65.5381 100.736 65.5381 100.636 65.5381 100.536C65.5381 99.8179 65.5381 99.0796 65.5381 98.3613C65.5381 98.2017 65.4777 98.0421 65.4173 97.9024C64.6724 96.6653 63.9275 95.4283 63.1825 94.1912C63.1221 94.1114 63.0819 94.0515 63.0215 93.9517Z" fill="white"/>
<path d="M30.4077 0V32.1641C30.4077 32.1641 29.5823 48.9645 48.3667 51.0196V41.123C48.3667 41.123 40.1925 40.2251 40.1925 32.1042V0" fill="white"/>
<path d="M71.4403 32.1641V0H71.2389H61.6555H45.8105V10.0962H61.7763V32.1042C61.7763 40.2251 53.4612 41.123 53.4612 41.123V51.0196C72.2657 48.9445 71.4403 32.1641 71.4403 32.1641Z" fill="white"/>
<path d="M50.9253 29.2708C53.8648 29.2708 56.2606 26.8965 56.2606 23.9833C56.2606 21.0702 53.8648 18.6958 50.9253 18.6958C47.9858 18.6958 45.59 21.0702 45.59 23.9833C45.5698 26.8965 47.9657 29.2708 50.9253 29.2708Z" fill="white"/>
</svg>
