<svg width="30" height="37" viewBox="0 0 30 37" fill="none" xmlns="http://www.w3.org/2000/svg">
<path d="M0.00382866 0V22.8571C0.00382866 22.8571 -0.582782 34.7962 12.7662 36.2566V29.2237C12.7662 29.2237 6.9573 28.5856 6.9573 22.8146V0" fill="white"/>
<path d="M29.6081 22.8571V0H29.465H22.6546H11.3945V7.17476H22.7404V22.8146C22.7404 28.5856 16.8314 29.2237 16.8314 29.2237V36.2566C30.1947 34.782 29.6081 22.8571 29.6081 22.8571Z" fill="white"/>
<path d="M14.5826 20.8012C16.6715 20.8012 18.3741 19.1139 18.3741 17.0437C18.3741 14.9735 16.6715 13.2861 14.5826 13.2861C12.4937 13.2861 10.7911 14.9735 10.7911 17.0437C10.7768 19.1139 12.4794 20.8012 14.5826 20.8012Z" fill="white"/>
</svg>
