<svg width="56" height="60" viewBox="0 0 56 60" fill="none" xmlns="http://www.w3.org/2000/svg">
<path d="M51.5974 49.7671L29.1384 7.90584C28.8037 7.28373 28.2261 6.97559 27.643 6.97559C27.0599 6.97559 26.4768 7.28373 26.1475 7.90584L3.68859 49.7671C3.02454 51.0114 3.85596 52.5579 5.18406 52.5579H50.1019C51.43 52.5579 52.2614 51.0114 51.5974 49.7671ZM25.9154 24.1852C25.9154 23.9294 26.1097 23.7201 26.3473 23.7201H28.9387C29.1762 23.7201 29.3706 23.9294 29.3706 24.1852V34.8831C29.3706 35.1389 29.1762 35.3483 28.9387 35.3483H26.3473C26.1097 35.3483 25.9154 35.1389 25.9154 34.8831V24.1852ZM27.643 44.6508C26.9649 44.6359 26.3192 44.3353 25.8445 43.8135C25.3698 43.2918 25.1039 42.5905 25.1039 41.86C25.1039 41.1296 25.3698 40.4282 25.8445 39.9065C26.3192 39.3847 26.9649 39.0842 27.643 39.0693C28.3211 39.0842 28.9668 39.3847 29.4415 39.9065C29.9162 40.4282 30.182 41.1296 30.182 41.86C30.182 42.5905 29.9162 43.2918 29.4415 43.8135C28.9668 44.3353 28.3211 44.6359 27.643 44.6508Z" fill="#FF4E4E"/>
</svg>
