<svg width="73" height="72" viewBox="0 0 73 72" fill="none" xmlns="http://www.w3.org/2000/svg">
<path d="M0.0027991 43.9092V60.655C0.0027991 60.655 -0.426431 69.4037 9.34564 70.4671V65.6036C9.34564 65.6036 4.81014 64.8521 4.81014 60.6125V43.9092" fill="#2ABCA1"/>
<path d="M15.2827 63.817C19.2172 63.817 21.8355 61.5058 21.8355 57.9751V50.7437H17.2428V57.7766C17.2428 59.0953 16.4988 59.9035 15.2827 59.9035C14.0522 59.9035 13.2939 59.1237 13.2939 57.7766V50.7437H8.70117V57.9609C8.71548 61.5058 11.3481 63.817 15.2827 63.817Z" fill="#2ABCA1"/>
<path d="M32.1814 60.655V43.9092H32.0669H27.0736H22.8528V48.5884H27.3597V60.6125C27.3597 64.8379 22.8242 65.6036 22.8242 65.6036V70.4671C32.6106 69.3895 32.1814 60.655 32.1814 60.655Z" fill="#2ABCA1"/>
<path d="M45.7876 50.6587V51.6797C44.6859 50.7864 43.2838 50.2617 41.7243 50.2617C37.6466 50.2617 34.7422 53.1685 34.7422 57.2663C34.7422 61.3642 37.6466 64.3135 41.7243 64.3135C43.2695 64.3135 44.6573 63.803 45.7447 62.9381L45.7161 63.8739H49.6793V50.6587H45.7876ZM42.3252 60.2724C40.6083 60.2724 39.3492 58.982 39.3492 57.2663C39.3492 55.5506 40.6083 54.2603 42.3252 54.2603C44.0421 54.2603 45.3012 55.5506 45.3012 57.2663C45.3012 58.9962 44.0421 60.2724 42.3252 60.2724ZM68.2505 50.2759C66.5908 50.2759 65.1171 51.0274 64.1585 52.2185C63.3287 50.999 61.9552 50.2759 60.3384 50.2759C58.8075 50.2759 57.4054 50.9707 56.4468 52.0909L56.4038 50.6729H52.5551V63.8739H57.1478V56.6424C57.1478 54.9976 57.8346 54.1185 59.0793 54.1185C60.038 54.1185 60.553 54.8275 60.553 56.1603V63.8739H65.017V56.6424C65.017 54.9834 65.6608 54.1185 66.9199 54.1185C67.8928 54.1185 68.4079 54.7849 68.4079 56.1603V63.8739H73.0006V55.5932C73.0006 52.4879 71.0977 50.2759 68.2505 50.2759Z" fill="#2ABCA1"/>
<path d="M53.6562 66.7663C54.0855 66.7663 54.4861 66.7663 54.901 66.7663C55.273 66.7663 55.6593 66.7521 56.017 66.823C56.5464 66.9081 56.9184 67.22 57.0471 67.7447C57.1759 68.2835 56.9899 68.723 56.575 69.0775L56.5607 69.0917C56.7324 69.276 56.9184 69.432 57.0471 69.6305C57.505 70.4388 57.0471 71.4171 56.1028 71.644C55.9741 71.6724 55.831 71.6865 55.6879 71.6865C55.0441 71.6865 54.4145 71.6865 53.7707 71.6865C53.7421 71.6865 53.6992 71.6865 53.6562 71.6865C53.6562 70.0559 53.6562 68.4253 53.6562 66.7663ZM54.4575 70.9209C54.8152 70.9209 55.1728 70.9209 55.5162 70.9209C55.645 70.9209 55.7595 70.9067 55.8882 70.8783C56.203 70.7932 56.4033 70.5096 56.389 70.1693C56.3747 69.8574 56.1458 69.5738 55.831 69.5455C55.3875 69.5171 54.9296 69.5313 54.4718 69.5313C54.4575 69.9992 54.4575 70.4529 54.4575 70.9209ZM54.4575 68.7939C54.8724 68.7939 55.2587 68.8081 55.645 68.7939C56.017 68.7798 56.2745 68.4962 56.2602 68.1417C56.2459 67.8014 55.9884 67.532 55.6164 67.532C55.2587 67.5178 54.8867 67.532 54.529 67.532C54.5004 67.532 54.4718 67.5462 54.4575 67.5462C54.4575 67.9574 54.4575 68.3686 54.4575 68.7939Z" fill="#2ABCA1"/>
<path d="M72.7987 71.6863C72.4983 71.6863 72.2407 71.6863 71.9689 71.6863C71.9117 71.6863 71.8401 71.6296 71.8115 71.5729C71.4967 71.0483 71.182 70.5236 70.8815 69.999C70.8243 69.8998 70.7671 69.8714 70.6526 69.8714C70.3951 69.8856 70.1375 69.8714 69.8657 69.8714C69.8657 70.4811 69.8657 71.0766 69.8657 71.6863C69.5938 71.6863 69.3363 71.6863 69.0645 71.6863C69.0645 70.0557 69.0645 68.4251 69.0645 66.7803C69.0788 66.7661 69.0931 66.7661 69.0931 66.7661C69.8227 66.7803 70.5524 66.7519 71.2821 66.7945C71.9546 66.837 72.5126 67.39 72.627 68.0139C72.7558 68.737 72.441 69.3751 71.7972 69.6871C71.7543 69.7154 71.7114 69.7296 71.6541 69.758C72.0261 70.396 72.3981 71.0341 72.7987 71.6863ZM69.8657 69.0915C70.2949 69.0915 70.6955 69.1057 71.1104 69.0915C71.4967 69.0632 71.7829 68.7654 71.8115 68.3826C71.8401 67.9997 71.6255 67.6452 71.2392 67.5743C70.7957 67.5034 70.3378 67.5176 69.8657 67.4893C69.8657 68.0706 69.8657 68.5811 69.8657 69.0915Z" fill="#2ABCA1"/>
<path d="M41.3368 68.5106C41.065 68.5106 40.8074 68.5106 40.5213 68.5106C40.507 68.4964 40.4927 68.4681 40.4927 68.4397C40.1636 67.7165 39.5197 67.3762 38.6899 67.4755C37.9745 67.5606 37.3879 68.1278 37.2735 68.8651C37.159 69.6024 37.3307 70.2405 37.9745 70.6942C38.7042 71.2188 40.0491 71.1196 40.4927 69.9852C40.5356 69.886 40.5785 69.8576 40.6787 69.8576C40.9076 69.8576 41.1222 69.8576 41.3654 69.8576C41.2939 70.2405 41.1365 70.5666 40.9076 70.8644C40.2781 71.6442 39.2479 71.9562 38.2178 71.6726C37.2735 71.4174 36.5724 70.5808 36.4579 69.6166C36.3578 68.7091 36.5867 67.9009 37.2878 67.2912C38.5182 66.1994 40.8504 66.5538 41.3368 68.5106Z" fill="#2ABCA1"/>
<path d="M62.4835 67.5318C62.4835 67.9714 62.4835 68.3826 62.4835 68.8079C63.0987 68.8079 63.714 68.8079 64.3435 68.8079C64.3435 69.0632 64.3435 69.29 64.3435 69.5453C63.7283 69.5453 63.113 69.5453 62.4835 69.5453C62.4835 70.0132 62.4835 70.4527 62.4835 70.9207C63.1846 70.9207 63.9 70.9207 64.6153 70.9207C64.6153 71.1759 64.6153 71.4169 64.6153 71.6722C63.6281 71.6722 62.6552 71.6722 61.668 71.6722C61.668 70.0415 61.668 68.4109 61.668 66.7661C62.6266 66.7661 63.5709 66.7661 64.5295 66.7661C64.5295 67.0072 64.5295 67.2624 64.5295 67.5176C63.857 67.5318 63.1846 67.5318 62.4835 67.5318Z" fill="#2ABCA1"/>
<path d="M44.7852 66.7666C45.0713 66.7666 45.3145 66.7666 45.5721 66.7666C45.6293 66.7666 45.7008 66.8233 45.7295 66.88C46.1158 67.5181 46.5021 68.1561 46.8884 68.7942C46.917 68.8509 46.9456 68.8935 47.0028 68.9644C47.2747 68.5106 47.5322 68.0852 47.7897 67.6599C47.9471 67.3904 48.1045 67.121 48.2762 66.8658C48.3048 66.8233 48.362 66.7666 48.405 66.7666C48.6625 66.7524 48.92 66.7666 49.1919 66.7666C49.149 66.8375 49.1347 66.88 49.106 66.9225C48.5624 67.8017 48.033 68.695 47.5036 69.5741C47.4464 69.6591 47.4177 69.7726 47.4177 69.886C47.4034 70.4816 47.4177 71.0771 47.4177 71.6726C47.1316 71.6726 46.8598 71.6726 46.5736 71.6726C46.5736 71.5875 46.5736 71.5166 46.5736 71.4457C46.5736 70.9353 46.5736 70.4107 46.5736 69.9002C46.5736 69.7868 46.5307 69.6733 46.4878 69.5741C45.9584 68.695 45.429 67.8158 44.8996 66.9367C44.8567 66.88 44.8281 66.8375 44.7852 66.7666Z" fill="#2ABCA1"/>
<path d="M21.6093 0V22.8571C21.6093 22.8571 21.0227 34.7962 34.3716 36.2566V29.2237C34.3716 29.2237 28.5628 28.5856 28.5628 22.8146V0" fill="#2ABCA1"/>
<path d="M51.2135 22.8571V0H51.0704H44.26H33V7.17476H44.3459V22.8146C44.3459 28.5856 38.4369 29.2237 38.4369 29.2237V36.2566C51.8001 34.782 51.2135 22.8571 51.2135 22.8571Z" fill="#2ABCA1"/>
<path d="M36.1881 20.8012C38.277 20.8012 39.9796 19.1139 39.9796 17.0437C39.9796 14.9735 38.277 13.2861 36.1881 13.2861C34.0992 13.2861 32.3966 14.9735 32.3966 17.0437C32.3823 19.1139 34.0849 20.8012 36.1881 20.8012Z" fill="#2ABCA1"/>
</svg>
