<svg width="15" height="15" viewBox="0 0 15 15" fill="none" xmlns="http://www.w3.org/2000/svg">
<path d="M7.5 14.9998C7.99728 14.9998 8.47419 14.8023 8.82582 14.4507C9.17746 14.099 9.375 13.6221 9.375 13.1248H5.625C5.625 13.6221 5.82254 14.099 6.17417 14.4507C6.52581 14.8023 7.00272 14.9998 7.5 14.9998ZM8.43281 1.03016C8.4459 0.8998 8.43152 0.768149 8.39059 0.643694C8.34967 0.519238 8.28312 0.40474 8.19523 0.307586C8.10734 0.210431 8.00006 0.132776 7.88031 0.0796292C7.76057 0.0264823 7.63101 -0.000976563 7.5 -0.000976562C7.36899 -0.000976563 7.23943 0.0264823 7.11969 0.0796292C6.99994 0.132776 6.89266 0.210431 6.80477 0.307586C6.71688 0.40474 6.65033 0.519238 6.60941 0.643694C6.56848 0.768149 6.5541 0.8998 6.56719 1.03016C5.50755 1.24569 4.55496 1.82081 3.87072 2.65813C3.18648 3.49545 2.81264 4.54351 2.8125 5.62484C2.8125 6.65422 2.34375 11.2498 0.9375 12.1873H14.0625C12.6562 11.2498 12.1875 6.65422 12.1875 5.62484C12.1875 3.35609 10.575 1.46234 8.43281 1.03016Z" fill="white"/>
</svg>
