<svg width="14" height="12" viewBox="0 0 14 12" fill="none" xmlns="http://www.w3.org/2000/svg">
<path d="M13.2977 4.30036H11.8982V1.03474C11.8979 0.849212 11.8241 0.671346 11.693 0.540159C11.5618 0.408973 11.3839 0.335177 11.1984 0.334961H0.70173C0.516204 0.335177 0.338338 0.408973 0.207152 0.540159C0.0759649 0.671346 0.00216919 0.849212 0.00195312 1.03474V8.20745C0.00216919 8.39298 0.0759649 8.57084 0.207152 8.70203C0.338338 8.83321 0.516204 8.90701 0.70173 8.90723H5.7168V10.3651H3.96736V11.2981H8.39927V10.3651H6.64983V8.90723H9.33231V10.5984C9.33252 10.7839 9.40631 10.9618 9.5375 11.0929C9.66869 11.2241 9.84656 11.2979 10.0321 11.2981H13.2977C13.4832 11.2979 13.6611 11.2241 13.7923 11.0929C13.9235 10.9618 13.9973 10.7839 13.9975 10.5984V5.00014C13.9973 4.81461 13.9235 4.63674 13.7923 4.50555C13.6611 4.37436 13.4832 4.30057 13.2977 4.30036ZM9.33231 5.00014V7.97419H0.934989V1.268H10.9651V4.30036H10.0321C9.84656 4.30057 9.66869 4.37436 9.5375 4.50555C9.40631 4.63674 9.33252 4.81461 9.33231 5.00014ZM13.0645 10.3651H10.2653V5.2334H13.0645V10.3651Z" fill="white"/>
</svg>
