<svg width="14" height="14" viewBox="0 0 14 14" fill="none" xmlns="http://www.w3.org/2000/svg">
<path d="M7.00058 2.69971H6.99883L2.0332 12.2486L2.03452 12.2499H11.9649L11.9658 12.2486L7.00058 2.69971ZM6.50751 5.24989H7.49189V9.1874H6.50751V5.24989ZM6.9997 11.3749C6.86991 11.3749 6.74303 11.3364 6.63511 11.2643C6.52719 11.1922 6.44308 11.0897 6.39341 10.9698C6.34374 10.8499 6.33074 10.7179 6.35606 10.5906C6.38138 10.4633 6.44389 10.3464 6.53566 10.2546C6.62744 10.1628 6.74437 10.1003 6.87167 10.075C6.99897 10.0497 7.13092 10.0627 7.25084 10.1123C7.37075 10.162 7.47324 10.2461 7.54535 10.3541C7.61746 10.462 7.65595 10.5889 7.65595 10.7186C7.65595 10.8927 7.58681 11.0596 7.46374 11.1827C7.34067 11.3058 7.17375 11.3749 6.9997 11.3749Z" fill="white"/>
<path d="M12.6873 13.1247H1.31232C1.23719 13.1246 1.16333 13.1053 1.09786 13.0684C1.03239 13.0315 0.977518 12.9784 0.938526 12.9142C0.899535 12.85 0.87774 12.7768 0.875242 12.7017C0.872744 12.6266 0.889626 12.5521 0.924262 12.4855L6.61176 1.54798C6.64872 1.47699 6.70444 1.41749 6.77287 1.37597C6.84129 1.33445 6.91979 1.3125 6.99982 1.3125C7.07986 1.3125 7.15836 1.33445 7.22678 1.37597C7.29521 1.41749 7.35093 1.47699 7.38789 1.54798L13.0754 12.4855C13.11 12.5521 13.1269 12.6266 13.1244 12.7017C13.1219 12.7768 13.1001 12.85 13.0611 12.9142C13.0221 12.9784 12.9673 13.0315 12.9018 13.0684C12.8363 13.1053 12.7625 13.1246 12.6873 13.1247ZM2.0342 12.2497H11.9654L11.9659 12.2484L7.0007 2.69904H6.99895L2.03332 12.2484L2.0342 12.2497Z" fill="white"/>
</svg>
