<svg width="14" height="13" viewBox="0 0 14 13" fill="none" xmlns="http://www.w3.org/2000/svg">
<path d="M12.6873 12.1247H1.31232C1.23719 12.1246 1.16333 12.1053 1.09786 12.0684C1.03239 12.0315 0.977518 11.9784 0.938526 11.9142C0.899535 11.85 0.87774 11.7768 0.875242 11.7017C0.872744 11.6266 0.889626 11.5521 0.924262 11.4855L6.61176 0.547976C6.64872 0.476985 6.70444 0.417492 6.77287 0.375973C6.84129 0.334454 6.91979 0.3125 6.99982 0.3125C7.07986 0.3125 7.15836 0.334454 7.22678 0.375973C7.29521 0.417492 7.35093 0.476985 7.38789 0.547976L13.0754 11.4855C13.11 11.5521 13.1269 11.6266 13.1244 11.7017C13.1219 11.7768 13.1001 11.85 13.0611 11.9142C13.0221 11.9784 12.9673 12.0315 12.9018 12.0684C12.8363 12.1053 12.7625 12.1246 12.6873 12.1247ZM2.0342 11.2497H11.9654L11.9659 11.2484L7.0007 1.69904H6.99895L2.03332 11.2484L2.0342 11.2497Z" fill="white"/>
</svg>
 