<svg width="21" height="20" viewBox="0 0 21 20" fill="none" xmlns="http://www.w3.org/2000/svg">
<path d="M19.8435 19.5629H1.15596C1.03253 19.5629 0.911188 19.531 0.80363 19.4705C0.696072 19.4099 0.605922 19.3227 0.541865 19.2172C0.477808 19.1117 0.442002 18.9914 0.437898 18.8681C0.433793 18.7447 0.461528 18.6224 0.518431 18.5128L9.86218 0.54408C9.9229 0.427452 10.0144 0.329714 10.1269 0.261504C10.2393 0.193294 10.3682 0.157227 10.4997 0.157227C10.6312 0.157227 10.7602 0.193294 10.8726 0.261504C10.985 0.329714 11.0765 0.427452 11.1372 0.54408L20.481 18.5128C20.5379 18.6224 20.5656 18.7447 20.5615 18.8681C20.5574 18.9914 20.5216 19.1117 20.4576 19.2172C20.3935 19.3227 20.3034 19.4099 20.1958 19.4705C20.0882 19.531 19.9669 19.5629 19.8435 19.5629ZM2.3419 18.1254H18.6575L18.6582 18.1233L10.5012 2.43511H10.4983L2.34046 18.1233L2.3419 18.1254Z" fill="#F08E8E"/>
</svg>
