<svg width="23" height="23" viewBox="0 0 23 23" fill="none" xmlns="http://www.w3.org/2000/svg">
<path d="M11.5005 4.43555H11.4977L3.33984 20.123L3.342 20.1251H19.6562L19.6576 20.123L11.5005 4.43555ZM10.6905 8.62514H12.3077V15.0939H10.6905V8.62514ZM11.4991 18.6876C11.2859 18.6876 11.0774 18.6244 10.9001 18.5059C10.7228 18.3875 10.5846 18.2191 10.503 18.0221C10.4214 17.8251 10.4001 17.6083 10.4417 17.3992C10.4833 17.19 10.586 16.9979 10.7367 16.8472C10.8875 16.6964 11.0796 16.5937 11.2888 16.5521C11.4979 16.5105 11.7147 16.5319 11.9117 16.6135C12.1087 16.6951 12.2771 16.8332 12.3955 17.0105C12.514 17.1878 12.5772 17.3963 12.5772 17.6095C12.5772 17.8955 12.4636 18.1697 12.2614 18.3719C12.0593 18.5741 11.785 18.6876 11.4991 18.6876Z" fill="#F08E8E"/>
<path d="M20.8435 21.5629H2.15596C2.03253 21.5629 1.91119 21.531 1.80363 21.4705C1.69607 21.4099 1.60592 21.3227 1.54186 21.2172C1.47781 21.1117 1.442 20.9914 1.4379 20.8681C1.43379 20.7447 1.46153 20.6224 1.51843 20.5128L10.8622 2.54408C10.9229 2.42745 11.0144 2.32971 11.1269 2.2615C11.2393 2.19329 11.3682 2.15723 11.4997 2.15723C11.6312 2.15723 11.7602 2.19329 11.8726 2.2615C11.985 2.32971 12.0765 2.42745 12.1372 2.54408L21.481 20.5128C21.5379 20.6224 21.5656 20.7447 21.5615 20.8681C21.5574 20.9914 21.5216 21.1117 21.4576 21.2172C21.3935 21.3227 21.3034 21.4099 21.1958 21.4705C21.0882 21.531 20.9669 21.5629 20.8435 21.5629ZM3.3419 20.1254H19.6575L19.6582 20.1233L11.5012 4.43511H11.4983L3.34046 20.1233L3.3419 20.1254Z" fill="#F08E8E"/>
</svg>
