<svg width="39" height="39" viewBox="0 0 39 39" fill="none" xmlns="http://www.w3.org/2000/svg">
<circle cx="19.5" cy="19.5" r="19.5" fill="#84F1DD"/>
<rect x="3" y="3" width="33" height="33" rx="16.5" fill="#2ABCA1"/>
<path d="M25.2525 22.677C24.9393 21.9351 24.4848 21.2613 23.9144 20.6931C23.3457 20.1231 22.672 19.6688 21.9305 19.355C21.9239 19.3517 21.9172 19.35 21.9106 19.3467C22.9449 18.5996 23.6172 17.3827 23.6172 16.0098C23.6172 13.7354 21.7745 11.8926 19.5 11.8926C17.2256 11.8926 15.3829 13.7354 15.3829 16.0098C15.3829 17.3827 16.0552 18.5996 17.0895 19.3483C17.0829 19.3517 17.0762 19.3533 17.0696 19.3566C16.3258 19.6704 15.6584 20.1203 15.0857 20.6947C14.5158 21.2634 14.0614 21.9371 13.7476 22.6786C13.4393 23.4045 13.2731 24.1828 13.2579 24.9713C13.2574 24.989 13.2605 25.0066 13.267 25.0231C13.2735 25.0396 13.2832 25.0547 13.2956 25.0674C13.3079 25.08 13.3227 25.0901 13.3391 25.097C13.3554 25.1039 13.3729 25.1074 13.3907 25.1074H14.3868C14.4598 25.1074 14.5179 25.0493 14.5196 24.9779C14.5528 23.6963 15.0674 22.496 15.9772 21.5862C16.9185 20.6449 18.1686 20.127 19.5 20.127C20.8315 20.127 22.0816 20.6449 23.0229 21.5862C23.9327 22.496 24.4473 23.6963 24.4805 24.9779C24.4822 25.051 24.5403 25.1074 24.6133 25.1074H25.6094C25.6271 25.1074 25.6447 25.1039 25.661 25.097C25.6774 25.0901 25.6921 25.08 25.7045 25.0674C25.7169 25.0547 25.7266 25.0396 25.7331 25.0231C25.7396 25.0066 25.7427 24.989 25.7422 24.9713C25.7256 24.1777 25.5613 23.4058 25.2525 22.677ZM19.5 18.8652C18.738 18.8652 18.0208 18.5681 17.4813 18.0285C16.9417 17.489 16.6446 16.7718 16.6446 16.0098C16.6446 15.2478 16.9417 14.5306 17.4813 13.991C18.0208 13.4515 18.738 13.1543 19.5 13.1543C20.2621 13.1543 20.9792 13.4515 21.5188 13.991C22.0583 14.5306 22.3555 15.2478 22.3555 16.0098C22.3555 16.7718 22.0583 17.489 21.5188 18.0285C20.9792 18.5681 20.2621 18.8652 19.5 18.8652Z" fill="#A5F4E6"/>
</svg>
