<svg width="130" height="115" viewBox="0 0 130 115" fill="none" xmlns="http://www.w3.org/2000/svg">
<g filter="url(#filter0_d)">
<rect x="40" y="20" width="50" height="50" rx="25" fill="url(#paint0_linear)"/>
</g>
<path d="M57 39C57 38.4696 57.2107 37.9609 57.5858 37.5858C57.9609 37.2107 58.4696 37 59 37H71C71.5304 37 72.0391 37.2107 72.4142 37.5858C72.7893 37.9609 73 38.4696 73 39V47C73 47.5304 72.7893 48.0391 72.4142 48.4142C72.0391 48.7893 71.5304 49 71 49H61.414C61.1488 49.0001 60.8945 49.1055 60.707 49.293L57.854 52.146C57.7841 52.216 57.6951 52.2638 57.598 52.2832C57.501 52.3026 57.4004 52.2928 57.309 52.255C57.2176 52.2172 57.1394 52.1531 57.0844 52.0709C57.0294 51.9886 57 51.8919 57 51.793V39ZM60.5 40C60.3674 40 60.2402 40.0527 60.1464 40.1464C60.0527 40.2402 60 40.3674 60 40.5C60 40.6326 60.0527 40.7598 60.1464 40.8536C60.2402 40.9473 60.3674 41 60.5 41H69.5C69.6326 41 69.7598 40.9473 69.8536 40.8536C69.9473 40.7598 70 40.6326 70 40.5C70 40.3674 69.9473 40.2402 69.8536 40.1464C69.7598 40.0527 69.6326 40 69.5 40H60.5ZM60.5 42.5C60.3674 42.5 60.2402 42.5527 60.1464 42.6464C60.0527 42.7402 60 42.8674 60 43C60 43.1326 60.0527 43.2598 60.1464 43.3536C60.2402 43.4473 60.3674 43.5 60.5 43.5H69.5C69.6326 43.5 69.7598 43.4473 69.8536 43.3536C69.9473 43.2598 70 43.1326 70 43C70 42.8674 69.9473 42.7402 69.8536 42.6464C69.7598 42.5527 69.6326 42.5 69.5 42.5H60.5ZM60.5 45C60.3674 45 60.2402 45.0527 60.1464 45.1464C60.0527 45.2402 60 45.3674 60 45.5C60 45.6326 60.0527 45.7598 60.1464 45.8536C60.2402 45.9473 60.3674 46 60.5 46H65.5C65.6326 46 65.7598 45.9473 65.8536 45.8536C65.9473 45.7598 66 45.6326 66 45.5C66 45.3674 65.9473 45.2402 65.8536 45.1464C65.7598 45.0527 65.6326 45 65.5 45H60.5Z" fill="white"/>
<defs>
<filter id="filter0_d" x="0" y="0" width="130" height="130" filterUnits="userSpaceOnUse" color-interpolation-filters="sRGB">
<feFlood flood-opacity="0" result="BackgroundImageFix"/>
<feColorMatrix in="SourceAlpha" type="matrix" values="0 0 0 0 0 0 0 0 0 0 0 0 0 0 0 0 0 0 127 0" result="hardAlpha"/>
<feOffset dy="20"/>
<feGaussianBlur stdDeviation="20"/>
<feComposite in2="hardAlpha" operator="out"/>
<feColorMatrix type="matrix" values="0 0 0 0 0 0 0 0 0 0 0 0 0 0 0 0 0 0 0.25 0"/>
<feBlend mode="normal" in2="BackgroundImageFix" result="effect1_dropShadow"/>
<feBlend mode="normal" in="SourceGraphic" in2="effect1_dropShadow" result="shape"/>
</filter>
<linearGradient id="paint0_linear" x1="49.375" y1="26.875" x2="80.625" y2="75" gradientUnits="userSpaceOnUse">
<stop stop-color="#2ABCA1"/>
<stop offset="0.98528" stop-color="#1A9BA4"/>
</linearGradient>
</defs>
</svg>
