<svg width="12" height="12" viewBox="0 0 12 12" fill="none" xmlns="http://www.w3.org/2000/svg">
<path fill-rule="evenodd" clip-rule="evenodd" d="M0 6C0 4.4087 0.632141 2.88258 1.75736 1.75736C2.88258 0.632141 4.4087 0 6 0C7.5913 0 9.11742 0.632141 10.2426 1.75736C11.3679 2.88258 12 4.4087 12 6C12 7.5913 11.3679 9.11742 10.2426 10.2426C9.11742 11.3679 7.5913 12 6 12C4.4087 12 2.88258 11.3679 1.75736 10.2426C0.632141 9.11742 0 7.5913 0 6H0ZM8.1168 8.6832L6 6.5656L3.8832 8.6832L3.3168 8.1176L5.4344 6L3.3168 3.8832L3.8832 3.3168L6 5.4344L8.1168 3.3168L8.6832 3.8832L6.5656 6L8.6832 8.1168L8.1176 8.6832H8.1168Z" fill="#F89C9C"/>
</svg>
