<svg width="19" height="13" viewBox="0 0 19 13" fill="none" xmlns="http://www.w3.org/2000/svg">
<path d="M9.16667 0.25C5 0.25 1.44167 2.84167 0 6.5C1.44167 10.1583 5 12.75 9.16667 12.75C13.3333 12.75 16.8917 10.1583 18.3333 6.5C16.8917 2.84167 13.3333 0.25 9.16667 0.25ZM9.16667 10.6667C6.86667 10.6667 5 8.8 5 6.5C5 4.2 6.86667 2.33333 9.16667 2.33333C11.4667 2.33333 13.3333 4.2 13.3333 6.5C13.3333 8.8 11.4667 10.6667 9.16667 10.6667ZM9.16667 4C7.78333 4 6.66667 5.11667 6.66667 6.5C6.66667 7.88333 7.78333 9 9.16667 9C10.55 9 11.6667 7.88333 11.6667 6.5C11.6667 5.11667 10.55 4 9.16667 4Z" fill="#AAB3BE"/>
</svg>
