<svg width="19" height="19" viewBox="0 0 19 19" fill="none" xmlns="http://www.w3.org/2000/svg">
<path d="M16.8891 6.86133H12.6669C12.3869 6.86133 12.1184 6.97254 11.9205 7.17049C11.7225 7.36845 11.6113 7.63693 11.6113 7.91688V15.8336C11.6113 16.1135 11.7225 16.382 11.9205 16.5799C12.1184 16.7779 12.3869 16.8891 12.6669 16.8891H16.8891C17.1691 16.8891 17.4375 16.7779 17.6355 16.5799C17.8335 16.382 17.9447 16.1135 17.9447 15.8336V7.91688C17.9447 7.63693 17.8335 7.36845 17.6355 7.17049C17.4375 6.97254 17.1691 6.86133 16.8891 6.86133ZM16.8891 7.91688V14.778H12.6669V7.91688H16.8891Z" fill="#AAB3BE"/>
<path d="M14.7769 2.11133H2.11024C1.83029 2.11133 1.56181 2.22254 1.36385 2.42049C1.1659 2.61845 1.05469 2.88693 1.05469 3.16688V11.6113C1.05469 11.8913 1.1659 12.1598 1.36385 12.3577C1.56181 12.5557 1.83029 12.6669 2.11024 12.6669H6.33247V13.7224H4.91802C4.75633 13.7041 4.59377 13.7486 4.46406 13.8469C4.33435 13.9452 4.24744 14.0896 4.22135 14.2502C4.24744 14.4108 4.33435 14.5553 4.46406 14.6535C4.59377 14.7518 4.75633 14.7964 4.91802 14.778H10.5125V14.5827H10.5547V11.6113H2.11024V3.16688H14.7769V5.80577H15.8325V3.16688C15.8325 2.88693 15.7213 2.61845 15.5233 2.42049C15.3253 2.22254 15.0569 2.11133 14.7769 2.11133Z" fill="#AAB3BE"/>
</svg>
