<svg width="25" height="26" viewBox="0 0 20 13" fill="none" xmlns="http://www.w3.org/2000/svg">
<path d="M0.439214 6.9876C1.96561 2.9436 5.33881 0 10.0008 0C11.1888 0 12.2928 0.192 13.3056 0.5436C13.2275 0.621732 13.1568 0.706892 13.0944 0.798L12.564 1.566C11.925 1.37546 11.2664 1.2587 10.6008 1.218V4.2C10.6008 4.35913 10.5376 4.51174 10.4251 4.62426C10.3126 4.73679 10.1599 4.8 10.0008 4.8C9.84168 4.8 9.68907 4.73679 9.57655 4.62426C9.46403 4.51174 9.40081 4.35913 9.40081 4.2V1.2192C6.71401 1.3872 4.53841 2.6952 3.03601 4.698C3.08035 4.71691 3.12225 4.74108 3.16081 4.77L4.96081 6.12C5.08812 6.21548 5.17228 6.35762 5.19478 6.51515C5.21729 6.67268 5.17629 6.8327 5.08081 6.96C4.98534 7.0873 4.8432 7.17147 4.68567 7.19397C4.52814 7.21647 4.36812 7.17548 4.24081 7.08L2.44081 5.73C2.42064 5.7152 2.4014 5.69917 2.38321 5.682C2.06163 6.23479 1.78707 6.81363 1.56241 7.4124C1.50608 7.56135 1.39289 7.68181 1.24774 7.7473C1.10258 7.81279 0.93736 7.81793 0.788414 7.7616C0.639468 7.70527 0.519001 7.59207 0.453514 7.44692C0.388026 7.30177 0.382882 7.13655 0.439214 6.9876ZM16.2732 2.4168C16.2912 2.3688 16.3056 2.3184 16.3188 2.2692C17.7588 3.486 18.858 5.1192 19.5624 6.9876C19.5903 7.06135 19.6034 7.13987 19.6009 7.21868C19.5985 7.29749 19.5805 7.37505 19.5481 7.44692C19.5157 7.51879 19.4694 7.58358 19.412 7.63757C19.3545 7.69156 19.287 7.73371 19.2132 7.7616C19.1395 7.78949 19.0609 7.80259 18.9821 7.80013C18.9033 7.79768 18.8258 7.77973 18.7539 7.7473C18.682 7.71488 18.6172 7.66861 18.5632 7.61115C18.5093 7.55369 18.4671 7.48615 18.4392 7.4124C18.2146 6.81321 17.9401 6.23397 17.6184 5.6808C17.6003 5.69841 17.581 5.71484 17.5608 5.73L15.7608 7.08C15.6978 7.12728 15.6261 7.16167 15.5497 7.18123C15.4734 7.20078 15.394 7.20511 15.316 7.19397C15.238 7.18283 15.1629 7.15643 15.0951 7.11628C15.0273 7.07614 14.9681 7.02304 14.9208 6.96C14.8735 6.89697 14.8391 6.82524 14.8196 6.74891C14.8 6.67258 14.7957 6.59315 14.8068 6.51515C14.818 6.43715 14.8444 6.3621 14.8845 6.2943C14.9247 6.22651 14.9778 6.16728 15.0408 6.12L16.8408 4.77C16.8798 4.74102 16.9221 4.71685 16.9668 4.698C16.6445 4.26706 16.2856 3.86476 15.894 3.4956L16.2732 2.4168ZM14.8284 1.284C14.9576 1.34988 15.0586 1.46032 15.1126 1.59489C15.1667 1.72947 15.1701 1.87906 15.1224 2.016L11.9568 11.0544C11.8084 11.4782 11.5893 11.8738 11.3088 12.2244C10.0008 13.8612 7.42441 12.432 8.08081 10.464C8.19862 10.1105 8.36545 9.77519 8.57641 9.468L14.0616 1.4808C14.1439 1.36071 14.2671 1.27465 14.4082 1.23866C14.5493 1.20268 14.6986 1.21922 14.8284 1.2852V1.284Z" fill="#2ABCA1"/>
</svg>
