<svg width="15" height="16" viewBox="0 0 15 16" fill="none" xmlns="http://www.w3.org/2000/svg">
<path d="M14.8084 9.92258L13.4626 9.12903C13.5985 8.38065 13.5985 7.61291 13.4626 6.86453L14.8084 6.07098C14.9632 5.98066 15.0327 5.79356 14.9821 5.61937C14.6315 4.47099 14.0344 3.43228 13.2542 2.56777C13.1341 2.4355 12.9383 2.40325 12.7866 2.49357L11.4408 3.28711C10.8753 2.79034 10.2246 2.40648 9.52008 2.15487V0.570996C9.52008 0.390351 9.39689 0.232287 9.22315 0.193578C8.06376 -0.0709373 6.87594 -0.0580341 5.77342 0.193578C5.59967 0.232287 5.47647 0.390351 5.47647 0.570996V2.15809C4.77515 2.41293 4.12438 2.79679 3.55574 3.29035L2.21313 2.4968C2.05834 2.40648 1.86563 2.4355 1.74558 2.57099C0.965294 3.43228 0.368227 4.47099 0.0175683 5.62259C-0.0361362 5.79678 0.0365228 5.98388 0.191318 6.0742L1.53708 6.86775C1.40125 7.61613 1.40125 8.38387 1.53708 9.13225L0.191318 9.9258C0.0365228 10.0161 -0.0329771 10.2032 0.0175683 10.3774C0.368227 11.5258 0.965294 12.5645 1.74558 13.429C1.86563 13.5613 2.06149 13.5935 2.21313 13.5032L3.5589 12.7097C4.12438 13.2064 4.77515 13.5903 5.47962 13.8419V15.429C5.47962 15.6096 5.60283 15.7678 5.77658 15.8065C6.93597 16.0709 8.12378 16.058 9.2263 15.8065C9.40005 15.7678 9.52321 15.6096 9.52321 15.429V13.8419C10.2246 13.5871 10.8753 13.2032 11.4439 12.7097L12.7898 13.5032C12.9445 13.5935 13.1372 13.5645 13.2573 13.429C14.0376 12.5678 14.6347 11.529 14.9853 10.3774C15.0327 10.2 14.9632 10.0129 14.8084 9.92258ZM7.49829 10.5774C6.10512 10.5774 4.97102 9.41936 4.97102 7.99677C4.97102 6.5742 6.10512 5.41614 7.49829 5.41614C8.89144 5.41614 10.0255 6.5742 10.0255 7.99677C10.0255 9.41936 8.89144 10.5774 7.49829 10.5774Z" fill="#AAB3BE"/>
</svg>
